# xmcd
#
# Track frame offsets: 
#        150
#        17626
#        42569
#        59609
#        82813
#        98965
#        118976
#        148652
#        163630
#
# Disc length: 2555 seconds
#
# Revision: 1
# Processed by: cddbd v1.5.2PL0 Copyright (c) Steve Scherf et al.
# Submitted via: ExactAudioCopyFreeDBPlugin 1.0
#
DISCID=7a09f909
DTITLE=Major Harris - My Way
DYEAR=1974
DGENRE=Soul
TTITLE0=Each Morning I Wake Up
TTITLE1=Love Won't Let Me Wait
TTITLE2=Sweet Tomorrow
TTITLE3=Sideshow
TTITLE4=Two Wrongs
TTITLE5=Loving You Is Mellow
TTITLE6=Just A Thing That I Do
TTITLE7=After Loving You
TTITLE8=My Way
EXTD=
EXTT0=
EXTT1=
EXTT2=
EXTT3=
EXTT4=
EXTT5=
EXTT6=
EXTT7=
EXTT8=
PLAYORDER=
